<svg xmlns="http://www.w3.org/2000/svg" viewBox="0 0 1200 760" font-family="-apple-system, BlinkMacSystemFont, 'SF Pro Text', Helvetica, sans-serif">
  <defs>
    <linearGradient id="bg" x1="0" y1="0" x2="0" y2="1">
      <stop offset="0%" stop-color="#f7f8fb"/>
      <stop offset="100%" stop-color="#eef0f5"/>
    </linearGradient>
    <filter id="shadow" x="-20%" y="-20%" width="140%" height="140%">
      <feDropShadow dx="0" dy="2" stdDeviation="4" flood-opacity="0.08"/>
    </filter>
  </defs>
  <rect width="1200" height="760" fill="url(#bg)"/>

  <!-- Top nav -->
  <rect x="0" y="0" width="1200" height="64" fill="#ffffff" stroke="#e4e7ee"/>
  <circle cx="36" cy="32" r="14" fill="#1f2740"/>
  <path d="M 30 27 L 36 23 L 42 27 L 42 37 L 30 37 z" fill="#fff"/>
  <text x="64" y="38" font-size="17" font-weight="700" fill="#101010">InvoiceGuard</text>
  <text x="190" y="38" font-size="12" fill="#888">/ accounts payable / new invoice</text>
  <text x="1090" y="38" font-size="13" fill="#3a3a3a">varad@studyhq.io</text>
  <circle cx="1160" cy="32" r="14" fill="#cfd8e3"/>
  <text x="1160" y="37" font-size="13" font-weight="700" fill="#1f2740" text-anchor="middle">V</text>

  <!-- Page heading -->
  <text x="40" y="116" font-size="26" font-weight="700" fill="#101010">Upload invoice for fraud review</text>
  <text x="40" y="140" font-size="13" fill="#666">Drop a PDF or image. We'll run GPT-4V, LayoutLMv3, ELA, and duplicate checks on-device, then return a risk report.</text>

  <!-- Dropzone -->
  <g filter="url(#shadow)">
    <rect x="40" y="180" width="720" height="320" rx="14" fill="#ffffff" stroke="#cfd8e3" stroke-dasharray="6 5" stroke-width="2"/>
  </g>
  <g transform="translate(400, 250)">
    <circle r="34" fill="#eaf0fb"/>
    <path d="M -8 -4 L 0 -14 L 8 -4 M 0 -14 L 0 12 M -16 14 L 16 14" stroke="#3a5fa8" stroke-width="2.5" fill="none" stroke-linecap="round"/>
  </g>
  <text x="400" y="335" font-size="18" font-weight="600" fill="#101010" text-anchor="middle">Drop invoice here</text>
  <text x="400" y="358" font-size="13" fill="#666" text-anchor="middle">or click to browse · PDF, JPEG, PNG · up to 20 MB</text>

  <!-- Or use sample -->
  <rect x="320" y="395" width="160" height="38" rx="19" fill="#1f2740"/>
  <text x="400" y="420" font-size="13" font-weight="600" fill="#fff" text-anchor="middle">Browse files…</text>
  <text x="400" y="460" font-size="12" fill="#888" text-anchor="middle">or try a sample: tampered_acme.jpg · duplicate_globex.pdf</text>

  <!-- Recent activity sidebar -->
  <g filter="url(#shadow)">
    <rect x="800" y="180" width="360" height="490" rx="14" fill="#ffffff"/>
  </g>
  <text x="820" y="212" font-size="11" font-weight="700" fill="#888" letter-spacing="1.5">RECENT</text>

  <!-- Recent item — HIGH -->
  <rect x="816" y="226" width="328" height="78" rx="10" fill="#fff5f5" stroke="#f1c0c0"/>
  <rect x="826" y="236" width="42" height="20" rx="10" fill="#c84a4a"/>
  <text x="847" y="250" font-size="10" font-weight="700" fill="#fff" text-anchor="middle">HIGH</text>
  <text x="880" y="251" font-size="13" font-weight="600" fill="#101010">Quick Pay Solutions LLC</text>
  <text x="826" y="274" font-size="11" fill="#666">$14,800 · INV-50122 · 2m ago</text>
  <text x="826" y="291" font-size="11" fill="#c84a4a">3 signals: invalid tax ID, generic address, font shift</text>

  <!-- Recent item — MEDIUM -->
  <rect x="816" y="316" width="328" height="78" rx="10" fill="#fff8ea" stroke="#e8d49a"/>
  <rect x="826" y="326" width="62" height="20" rx="10" fill="#c98a26"/>
  <text x="857" y="340" font-size="10" font-weight="700" fill="#fff" text-anchor="middle">MEDIUM</text>
  <text x="900" y="341" font-size="13" font-weight="600" fill="#101010">Initech Inc.</text>
  <text x="826" y="364" font-size="11" fill="#666">$3,420 · INV-78901 · 14m ago</text>
  <text x="826" y="381" font-size="11" fill="#a87420">2 signals: ELA edited region, tax ID mismatch</text>

  <!-- Recent items — LOW -->
  <rect x="816" y="406" width="328" height="56" rx="10" fill="#f3f7f4" stroke="#cfe0d3"/>
  <rect x="826" y="416" width="38" height="20" rx="10" fill="#3a8a5a"/>
  <text x="845" y="430" font-size="10" font-weight="700" fill="#fff" text-anchor="middle">LOW</text>
  <text x="876" y="431" font-size="13" font-weight="600" fill="#101010">Acme Corporation</text>
  <text x="826" y="453" font-size="11" fill="#666">$1,362.50 · INV-2024-0042 · 1h ago</text>

  <rect x="816" y="474" width="328" height="56" rx="10" fill="#f3f7f4" stroke="#cfe0d3"/>
  <rect x="826" y="484" width="38" height="20" rx="10" fill="#3a8a5a"/>
  <text x="845" y="498" font-size="10" font-weight="700" fill="#fff" text-anchor="middle">LOW</text>
  <text x="876" y="499" font-size="13" font-weight="600" fill="#101010">Globex LLC</text>
  <text x="826" y="521" font-size="11" fill="#666">$8,400 · INV-99812 · 3h ago</text>

  <rect x="816" y="542" width="328" height="56" rx="10" fill="#f3f7f4" stroke="#cfe0d3"/>
  <rect x="826" y="552" width="38" height="20" rx="10" fill="#3a8a5a"/>
  <text x="845" y="566" font-size="10" font-weight="700" fill="#fff" text-anchor="middle">LOW</text>
  <text x="876" y="567" font-size="13" font-weight="600" fill="#101010">Wayne Enterprises</text>
  <text x="826" y="589" font-size="11" fill="#666">$22,150 · INV-44012 · 4h ago</text>

  <!-- Stats card -->
  <g filter="url(#shadow)">
    <rect x="40" y="540" width="720" height="130" rx="14" fill="#ffffff"/>
  </g>
  <text x="60" y="572" font-size="11" font-weight="700" fill="#888" letter-spacing="1.5">SESSION STATS · 1,024 invoices analyzed</text>

  <text x="60" y="608" font-size="22" font-weight="700" fill="#c84a4a">14</text>
  <text x="60" y="630" font-size="11" fill="#666">HIGH risk</text>

  <text x="160" y="608" font-size="22" font-weight="700" fill="#c98a26">61</text>
  <text x="160" y="630" font-size="11" fill="#666">MEDIUM risk</text>

  <text x="260" y="608" font-size="22" font-weight="700" fill="#3a8a5a">949</text>
  <text x="260" y="630" font-size="11" fill="#666">LOW risk</text>

  <text x="400" y="608" font-size="22" font-weight="700" fill="#1f2740">1.8s</text>
  <text x="400" y="630" font-size="11" fill="#666">avg processing time</text>

  <text x="560" y="608" font-size="22" font-weight="700" fill="#1f2740">$184k</text>
  <text x="560" y="630" font-size="11" fill="#666">flagged spend value</text>

  <!-- Footer -->
  <text x="40" y="730" font-size="11" fill="#888">v0.1 · TreeHacks 2025 · models: gpt-4o, microsoft/layoutlmv3-base</text>
</svg>
